<?xml version="1.0" encoding="UTF-8"?>
<svg id="_Слой_2" data-name="Слой 2" xmlns="http://www.w3.org/2000/svg" viewBox="0 0 133.55 68.61">
  <defs>
    <style>
      .cls-1 {
        stroke: #000;
        stroke-miterlimit: 10;
      }
    </style>
  </defs>
  <g id="_Слой_2-2" data-name="Слой 2">
    <g>
      <g>
        <path class="cls-1" d="m28.2,53.12c-4.2-1.93-6.9-6.02-6.86-10.42.03-3.58,2.01-7.21,5.01-9.1,3.59-2.27,6.09.86,9.36-1.05,3.96-2.32,2.75-7.78,6.59-9.63.98-.47,2.71-.19,6.07.26,3.31.45,5.98,1.02,7.78,1.45,19.21-5.71,38.42-11.43,57.63-17.14.59.09,1.93.38,3.16,1.45.88.76,1.34,1.59,1.58,2.11,2.11.04,4.22.09,6.33.13-2.11-3.03-4.22-6.07-6.33-9.1l-11.34,3.69-.79,1.58c-16.84,4.57-33.67,9.14-50.51,13.71-.97.05-2.15-.05-2.64-.79-.46-.7-.03-1.54.4-3.3.46-1.9.94-3.77.53-5.14-.7-2.31-4.18-4.05-7.12-3.69-2.21.27-2.6,1.54-6.99,4.88-3.72,2.83-5.92,4.47-8.84,4.88-2.46.35-3.69-.43-7.29-1.46-5.72-1.64-11.98-3.44-16.32-1.44C2.13,17.55.96,25.64.72,27.27c-1.47,10.16,4.5,22.61,15.09,25.98,5.24,1.67,10.01.6,12.4-.13Z"/>
        <circle class="cls-1" cx="108.37" cy="3.2" r=".59"/>
        <circle class="cls-1" cx="111.8" cy="2.09" r=".59"/>
        <circle class="cls-1" cx="115.13" cy="1.09" r=".59"/>
      </g>
      <g>
        <g>
          <path class="cls-1" d="m43.12,49.29c-.82.29-2.44.78-4.35.78-2.14,0-3.91-.55-5.29-1.87-1.22-1.18-1.97-3.07-1.97-5.27.02-4.22,2.92-7.31,7.66-7.31,1.64,0,2.92.36,3.53.65l-.44,1.49c-.76-.34-1.7-.61-3.13-.61-3.44,0-5.69,2.14-5.69,5.69s2.16,5.71,5.46,5.71c1.2,0,2.02-.17,2.44-.38v-4.22h-2.88v-1.47h4.66v6.8Z"/>
          <path class="cls-1" d="m50.16,35.77v8.38c0,3.17,1.41,4.51,3.3,4.51,2.1,0,3.44-1.39,3.44-4.51v-8.38h1.85v8.25c0,4.35-2.29,6.13-5.35,6.13-2.9,0-5.08-1.66-5.08-6.05v-8.34h1.85Z"/>
          <path class="cls-1" d="m66.16,35.77v14.15h-1.83v-14.15h1.83Z"/>
          <path class="cls-1" d="m74.45,37.32h-4.3v-1.55h10.48v1.55h-4.33v12.6h-1.85v-12.6Z"/>
          <path class="cls-1" d="m85.33,45.47l-1.47,4.45h-1.89l4.81-14.15h2.2l4.83,14.15h-1.95l-1.51-4.45h-5.02Zm4.64-1.43l-1.39-4.07c-.31-.92-.53-1.76-.73-2.58h-.04c-.21.84-.44,1.7-.71,2.56l-1.39,4.09h4.26Z"/>
          <path class="cls-1" d="m98.31,35.95c.92-.19,2.25-.29,3.51-.29,1.95,0,3.21.36,4.09,1.15.71.63,1.11,1.6,1.11,2.69,0,1.87-1.18,3.11-2.67,3.61v.06c1.09.38,1.74,1.39,2.08,2.86.46,1.97.8,3.34,1.09,3.88h-1.89c-.23-.4-.54-1.62-.94-3.38-.42-1.95-1.18-2.69-2.83-2.75h-1.72v6.13h-1.83v-13.96Zm1.83,6.45h1.87c1.95,0,3.19-1.07,3.19-2.69,0-1.83-1.32-2.62-3.25-2.65-.88,0-1.51.08-1.8.17v5.17Z"/>
        </g>
        <g>
          <path d="m49.77,66.15c.82.5,2.02.92,3.28.92,1.87,0,2.96-.99,2.96-2.42,0-1.32-.76-2.08-2.67-2.81-2.31-.82-3.74-2.02-3.74-4.01,0-2.2,1.83-3.84,4.58-3.84,1.45,0,2.5.34,3.13.69l-.5,1.49c-.46-.25-1.41-.67-2.69-.67-1.93,0-2.67,1.16-2.67,2.12,0,1.32.86,1.97,2.81,2.73,2.39.92,3.61,2.08,3.61,4.16,0,2.18-1.62,4.07-4.96,4.07-1.36,0-2.86-.4-3.61-.9l.46-1.53Z"/>
          <path d="m72.36,67.92c-.67.34-2.02.67-3.74.67-3.99,0-6.99-2.52-6.99-7.16s3-7.43,7.39-7.43c1.76,0,2.88.38,3.36.63l-.44,1.49c-.69-.34-1.68-.59-2.86-.59-3.32,0-5.52,2.12-5.52,5.84,0,3.46,2,5.69,5.44,5.69,1.11,0,2.25-.23,2.98-.59l.38,1.45Z"/>
          <path d="m78.58,54.23v5.92h6.85v-5.92h1.85v14.15h-1.85v-6.63h-6.85v6.63h-1.83v-14.15h1.83Z"/>
          <path d="m104.64,61.16c0,4.87-2.96,7.45-6.57,7.45s-6.36-2.9-6.36-7.18c0-4.49,2.79-7.43,6.57-7.43s6.36,2.96,6.36,7.16Zm-10.98.23c0,3.02,1.64,5.73,4.51,5.73s4.54-2.67,4.54-5.88c0-2.81-1.47-5.75-4.51-5.75s-4.54,2.79-4.54,5.9Z"/>
          <path d="m121.21,61.16c0,4.87-2.96,7.45-6.57,7.45s-6.36-2.9-6.36-7.18c0-4.49,2.79-7.43,6.57-7.43s6.36,2.96,6.36,7.16Zm-10.98.23c0,3.02,1.64,5.73,4.51,5.73s4.54-2.67,4.54-5.88c0-2.81-1.47-5.75-4.51-5.75s-4.54,2.79-4.54,5.9Z"/>
          <path d="m125.68,54.23h1.83v12.62h6.05v1.53h-7.87v-14.15Z"/>
        </g>
      </g>
    </g>
  </g>
</svg>